<svg xmlns="http://www.w3.org/2000/svg" viewBox="-8 -4 372 312" width="372" height="312" fill="none"><defs><clipPath id="c"><path d="M334.6 130C335.7 143.5 346.7 159.2 341.4 171.3C336.1 183.3 315.1 191.7 302.5 202.2C289.9 212.7 281.3 227.1 265.7 234.2C250.1 241.4 228.3 242.2 208.9 245.3C189.5 248.3 167.2 255.7 149.3 252.5C131.3 249.2 117.2 233.8 101.3 225.7C85.4 217.7 65.2 214 54 204.3C42.7 194.5 43 179.7 34 167.3C25 154.9 0.3 142.5 0 130C-0.4 117.5 24.3 105.3 31.9 92.1C39.6 79 34.9 61.3 45.9 51C56.9 40.6 80.2 35.9 97.8 29.9C115.3 24 132.9 16.8 151.2 15.3C169.5 13.7 188 19.5 207.4 20.9C226.8 22.2 252.6 16.6 267.8 23.1C283 29.7 287.5 48.9 298.6 60.1C309.7 71.3 328.4 78.9 334.4 90.5C340.4 102.2 333.4 116.5 334.6 130Z"/></clipPath></defs>
<g clip-path="url(#c)"><path d="M565 30C564.5 44.4 561.7 58.4 558.9 72.9C556.1 87.4 554.9 103 548.1 117C541.4 131 531.6 145.9 518.2 156.7C504.8 167.5 485.2 174.9 467.8 181.7C450.4 188.6 431.9 193.2 413.7 197.8C395.5 202.3 377.7 205.2 358.6 209.2C339.6 213.1 319.2 221 299.5 221.2C279.7 221.4 258.6 216.1 240 210.3C221.5 204.5 205.4 194.6 188 186.3C170.6 178.1 150.9 171.4 135.7 160.8C120.5 150.3 103 137.6 96.8 123C90.6 108.4 102.8 88.9 98.6 73.4C94.3 57.8 71.7 44.6 71.1 30C70.6 15.4 87.5 0.2 95.1 -14C102.8 -28.2 108.9 -41.4 117.1 -54.9C125.2 -68.4 131.6 -84.1 144.3 -95C157 -105.9 177.9 -110.4 193.5 -120.3C209.1 -130.2 220.3 -147.9 238 -154.4C255.7 -161 279.3 -158.4 299.7 -159.5C320.2 -160.5 340.2 -161.8 360.5 -160.9C380.8 -160 403.1 -159.6 421.8 -154C440.5 -148.3 457.3 -137.2 472.8 -127.2C488.3 -117.3 502 -106 514.9 -94.5C527.8 -82.9 542.6 -71.4 550.4 -57.9C558.1 -44.4 559.2 -28 561.6 -13.4C564.1 1.3 565.5 15.6 565 30Z" fill="#956A0A" stroke="#141210" stroke-width="3.5"/><path d="M220 50c30-14 70-14 100 0" stroke="#D9A53A" stroke-width="5" stroke-linecap="round"/></g>
<path d="M334.6 130C335.7 143.5 346.7 159.2 341.4 171.3C336.1 183.3 315.1 191.7 302.5 202.2C289.9 212.7 281.3 227.1 265.7 234.2C250.1 241.4 228.3 242.2 208.9 245.3C189.5 248.3 167.2 255.7 149.3 252.5C131.3 249.2 117.2 233.8 101.3 225.7C85.4 217.7 65.2 214 54 204.3C42.7 194.5 43 179.7 34 167.3C25 154.9 0.3 142.5 0 130C-0.4 117.5 24.3 105.3 31.9 92.1C39.6 79 34.9 61.3 45.9 51C56.9 40.6 80.2 35.9 97.8 29.9C115.3 24 132.9 16.8 151.2 15.3C169.5 13.7 188 19.5 207.4 20.9C226.8 22.2 252.6 16.6 267.8 23.1C283 29.7 287.5 48.9 298.6 60.1C309.7 71.3 328.4 78.9 334.4 90.5C340.4 102.2 333.4 116.5 334.6 130Z" stroke="#141210" stroke-width="3.5" stroke-linejoin="round"/><path d="M310 168V190A8 8 0 0 0 326 190V168Z" fill="#956A0A"/><path d="M310 174V190A8 8 0 0 0 326 190V174" stroke="#141210" stroke-width="3" stroke-linecap="round"/><path d="M314.6666666666667 186v-8" stroke="#D9A53A" stroke-width="2.5" stroke-linecap="round"/><path d="M269 205V219A7 7 0 0 0 283 219V205Z" fill="#956A0A"/><path d="M269 211V219A7 7 0 0 0 283 219V211" stroke="#141210" stroke-width="3" stroke-linecap="round"/><path d="M273.0833333333333 215v-5" stroke="#D9A53A" stroke-width="2.5" stroke-linecap="round"/></svg>