<svg xmlns="http://www.w3.org/2000/svg" viewBox="0 0 140 130" width="140" height="130"><path d="M30 50h80l-9 60a10 10 0 0 1-10 9H49a10 10 0 0 1-10-9z" fill="#E23B2E" stroke="#95530F" stroke-width="3.5" stroke-linejoin="round"></path><path d="M24 38h92a8 8 0 0 1 8 8v2a8 8 0 0 1-8 8H24a8 8 0 0 1-8-8v-2a8 8 0 0 1 8-8z" fill="#F2564A" stroke="#95530F" stroke-width="3.5" stroke-linejoin="round"></path><path d="M52 66v46M70 66v46M88 66v46" stroke="#BE2A20" stroke-width="3" opacity=".55"></path><g stroke="#95530F" stroke-width="3.2" stroke-linejoin="round"><path d="M32 30c1-9 9-15 17-15 6 0 11 3 14 8 3-3 7-5 12-5 10 0 18 8 18 18 0 2 0 3-1 5H33c-1-3-1-6-1-11z" fill="#EFAE3A"></path><path d="M62 24c2-9 10-16 19-16 10 0 18 8 18 18 0 2 0 3-1 5H61c-1-2 0-5 1-7z" fill="#F2C46B"></path></g><g fill="#C1731A" opacity=".55"><circle cx="44" cy="22" r="2"></circle><circle cx="56" cy="16" r="1.6"></circle><circle cx="80" cy="18" r="2.1"></circle><circle cx="94" cy="24" r="1.7"></circle></g></svg>